<?xml version="1.0" encoding="UTF-8"?>
<svg id="Layer_1" data-name="Layer 1" xmlns="http://www.w3.org/2000/svg" viewBox="0 0 163.58 126.4">
  <defs>
    <style>
      .cls-1 {
        letter-spacing: -.01em;
      }

      .cls-2 {
        letter-spacing: 0em;
      }

      .cls-3 {
        letter-spacing: 0em;
      }

      .cls-4 {
        font-family: UniformRndCond-Medium, 'Uniform Rounded';
        font-size: 10.51px;
        font-weight: 500;
      }

      .cls-4, .cls-5 {
        fill: #231f20;
      }

      .cls-6 {
        letter-spacing: 0em;
      }

      .cls-7 {
        letter-spacing: 0em;
      }

      .cls-5 {
        stroke-width: 0px;
      }
    </style>
  </defs>
  <text class="cls-4" transform="translate(71.74 106.61)"><tspan x="0" y="0">I</tspan><tspan class="cls-2" x="2.74" y="0">s</tspan><tspan x="6.97" y="0">abel </tspan><tspan class="cls-7" x="27.93" y="0">C</tspan><tspan class="cls-2" x="33.63" y="0">os</tspan><tspan class="cls-7" x="43.17" y="0">t</tspan><tspan class="cls-3" x="46.9" y="0">a-</tspan><tspan class="cls-1" x="55.94" y="0">L</tspan><tspan x="60.46" y="0">op</tspan><tspan class="cls-2" x="71.29" y="0">e</tspan><tspan class="cls-6" x="76.53" y="0">s</tspan></text>
  <g>
    <path class="cls-5" d="m76.05,72.09c-3.5-1.51,2.54-8.72,3.9-10.19,7.31-7.92,12.27-14.77,19.66-24.15,22.55-28.65-33.54,2.43-31.5,6.63,1.25,2.57,26.72-10.9,27.48-9.3.56,1.2-24.04,13.28-28.99,13.39-4.61.1-11.37-7.82-7.61-12.16,6.3-7.26,17.86-13.86,30.07-19.07,5.77-2.46,17.83-4.22,21.97-.08,10.53,10.53-18.09,36.25-24.09,42.86-3.78,4.17,2.52,11.94-3.88,7.86-1.04-.66-4.64,5.44-7.01,4.21Z"/>
    <path class="cls-5" d="m73.26,88.65v2.44c-9.41,9.87-18.24,21.42-31.57,21.04-30.6-.89-15.92-29.63-6.24-39.06,8.02-7.81,15.05-13.99,23.23-18.79,13.15-8.84,23.03-.55,15.37,13.14-2.39,4.79-19.18,29.03-22.98,18.25-1.43-4.07-4.46,2.31-5.65-2.64-1.33-5.51,8.68-5.99,8.94.63.02.55,27.05-38.82,7.53-24.49-10.01,8.47-23.21,23.24-24.05,36.77,2.17,21.27,26.71,1.97,35.44-7.27Z"/>
    <path class="cls-5" d="m116.58,59.38l5.04,3.04c-2.89,3.46-10.61,5.29-14.72,2.17-5.02-3.82,18.92-21,19.86-25.47.16-.78.13-1.47-1.03-.63-9.84,7.12-32.5,29.93-37.49,36.89,8.48.44,24.4,8.27,32.47,9.4-3.38,3.62-5.31,5.3-7.88,7.07-9.01.6-27.74-9.06-37.12-6.68-6.12,2.56-13.45,6.07-6.83-2.95,2.84-4.67,9.87-6.74,15.43-6.91,8.98-13.31,29.6-31.9,40.68-41.52,13.47-8.77,14.35,13.24-8.4,25.59Z"/>
  </g>
</svg>