<?xml version="1.0" encoding="UTF-8"?>
<svg id="Layer_1" data-name="Layer 1" xmlns="http://www.w3.org/2000/svg" viewBox="0 0 163.58 126.4">
  <defs>
    <style>
      .cls-1 {
        fill: #ad6d48;
        font-family: Charter-Bold, Charter;
        font-size: 10.51px;
        font-weight: 700;
      }

      .cls-2 {
        letter-spacing: .02em;
      }

      .cls-3 {
        fill: #c16b32;
        stroke: #ad6d48;
        stroke-miterlimit: 10;
      }

      .cls-4 {
        letter-spacing: 0em;
      }
    </style>
  </defs>
  <text class="cls-1" transform="translate(62.67 106.64)"><tspan x="0" y="0">Isabel Costa-</tspan><tspan class="cls-2" x="62.35" y="0">L</tspan><tspan class="cls-4" x="68.26" y="0">opes</tspan></text>
  <g>
    <path class="cls-3" d="m68.78,72.82c-3.5-1.51,2.54-8.72,3.9-10.19,7.31-7.92,12.27-14.77,19.66-24.15,22.55-28.65-33.54,2.43-31.5,6.63,1.25,2.57,26.72-10.9,27.48-9.3.56,1.2-24.04,13.28-28.99,13.39-4.61.1-11.37-7.82-7.61-12.16,6.3-7.26,17.86-13.86,30.07-19.07,5.77-2.46,17.83-4.22,21.97-.08,10.53,10.53-19.61,37.3-25.61,43.91-3.78,4.17,2.09,3.69-2.08,7.73-.88.86-3.97,5.18-7.3,3.29Z"/>
    <path class="cls-3" d="m65.98,89.37v2.44c-9.41,9.87-18.24,21.42-31.57,21.04-30.6-.89-15.92-29.63-6.24-39.06,8.02-7.81,15.05-13.99,23.23-18.79,13.15-8.84,23.03-.55,15.37,13.14-2.39,4.79-19.29,31.6-21.3,20.34-.54-3.04-6.99,2.04-7.03-3.04-.05-5.4,8.74-5.43,8.99,1.19.02.55,26.68-41.07,7.17-26.74-10.01,8.47-23.21,23.24-24.05,36.77,2.17,21.27,26.71,1.97,35.44-7.27Z"/>
    <path class="cls-3" d="m114.35,63.15h0c-2.89,3.46-10.61,5.29-14.72,2.17-5.02-3.82,18.92-21,19.86-25.47.16-.78.13-1.47-1.03-.63-9.84,7.12-32.5,29.93-37.49,36.89,8.48.44,24.4,8.27,32.47,9.4-3.38,3.62-5.31,5.3-7.88,7.07-9.01.6-27.74-9.06-37.12-6.68-6.12,2.56-13.45,6.07-6.83-2.95,2.84-4.67,9.87-6.74,15.43-6.91,8.98-13.31,29.6-31.9,40.68-41.52,12.43-8.1,14.14,10.03-3.56,22.58-2.13,1.51-2.04,4.7.2,6.05Z"/>
  </g>
</svg>