<?xml version="1.0" encoding="UTF-8"?>
<svg id="Layer_1" data-name="Layer 1" xmlns="http://www.w3.org/2000/svg" viewBox="0 0 163.58 126.4">
  <defs>
    <style>
      .cls-1 {
        letter-spacing: -.01em;
      }

      .cls-2 {
        letter-spacing: 0em;
      }

      .cls-3 {
        letter-spacing: 0em;
      }

      .cls-4 {
        font-family: UniformRndCond-Medium, 'Uniform Rounded';
        font-size: 10.51px;
        font-weight: 500;
      }

      .cls-4, .cls-5 {
        fill: #414042;
      }

      .cls-6 {
        letter-spacing: 0em;
      }

      .cls-7 {
        letter-spacing: 0em;
      }

      .cls-5, .cls-8 {
        stroke-width: 0px;
      }

      .cls-8 {
        fill: #e6e7e8;
      }
    </style>
  </defs>
  <text class="cls-4" transform="translate(71.74 106.61)"><tspan x="0" y="0">I</tspan><tspan class="cls-2" x="2.74" y="0">s</tspan><tspan x="6.97" y="0">abel </tspan><tspan class="cls-7" x="27.93" y="0">C</tspan><tspan class="cls-2" x="33.63" y="0">os</tspan><tspan class="cls-7" x="43.17" y="0">t</tspan><tspan class="cls-3" x="46.9" y="0">a-</tspan><tspan class="cls-1" x="55.94" y="0">L</tspan><tspan x="60.46" y="0">op</tspan><tspan class="cls-2" x="71.29" y="0">e</tspan><tspan class="cls-6" x="76.53" y="0">s</tspan></text>
  <g>
    <g>
      <path class="cls-5" d="m76.73,72.75c-.32,0-.63-.07-.91-.22-.68-.29-1.14-.84-1.29-1.55-.67-3.17,4.82-9.17,5.05-9.42,5.59-6.06,9.86-11.56,14.81-17.94,1.52-1.95,3.1-4,4.82-6.18,5.42-6.89,5.52-9.4,5.09-10.28-.29-.61-1.06-.91-2.29-.91-8,0-30.47,12.93-33.25,17.37-.21.34-.22.51-.21.54,0,0,0,0,0,0,.01,0,.12.05.4.05,2.31,0,9.17-2.97,15.22-5.59,5.98-2.59,9.71-4.17,11.05-4.17.5,0,.72.23.81.42.05.12.12.35-.06.65-1.36,2.19-24.63,13.35-29.37,13.45h0c-3.02,0-6.85-2.99-8.47-6.52-1.14-2.5-.97-4.8.47-6.47,7.17-8.26,20.41-15,30.25-19.2,3.04-1.29,8.38-2.6,13.46-2.6,2.93,0,6.88.46,9.05,2.63,9.45,9.45-10.81,30.02-20.54,39.9-1.52,1.54-2.72,2.76-3.53,3.65-1.61,1.78-1.2,4.35-.9,6.22.2,1.22.34,2.11-.09,2.61-.13.15-.37.33-.78.33-.58,0-1.4-.37-2.75-1.23-.2.06-1.04.91-1.66,1.54-1.36,1.37-2.91,2.92-4.4,2.92Z"/>
      <path class="cls-8" d="m102.33,14.67c3.62,0,6.9.69,8.7,2.48,10.53,10.53-18.09,36.25-24.09,42.86-3.04,3.35.42,9.01-1.4,9.01-.45,0-1.22-.34-2.48-1.15-.05-.03-.11-.05-.18-.05-1.11,0-3.95,4.43-6.15,4.43-.24,0-.46-.05-.68-.16-3.5-1.51,2.54-8.72,3.9-10.19,7.31-7.92,12.27-14.77,19.66-24.15,6.97-8.85,6.43-12,2.41-12-8.98,0-35.32,15.73-33.91,18.63.11.23.41.33.85.33,4.38,0,23.37-9.76,26.27-9.76.19,0,.31.04.35.13.56,1.2-24.04,13.28-28.99,13.39-.03,0-.06,0-.09,0-4.61,0-11.26-7.85-7.52-12.16,6.3-7.26,17.86-13.86,30.07-19.07,3.27-1.39,8.55-2.56,13.27-2.56m0-1c-5.16,0-10.58,1.33-13.66,2.64-9.89,4.22-23.2,11-30.43,19.33-1.58,1.82-1.78,4.31-.55,7,1.71,3.76,5.67,6.82,8.83,6.82h.11c5.03-.11,28.34-11.36,29.78-13.69.22-.36.26-.77.09-1.13-.1-.21-.42-.71-1.26-.71-1.44,0-5.03,1.52-11.24,4.21-5.45,2.36-12.17,5.27-14.69,5.53,1.09-1.51,5.72-5.14,13.26-9.35,8.38-4.68,15.83-7.59,19.46-7.59.7,0,1.58.11,1.84.63.24.49.57,2.63-5.03,9.75-1.72,2.18-3.31,4.23-4.82,6.19-4.94,6.36-9.2,11.86-14.78,17.9-.6.66-5.89,6.5-5.18,9.86.18.87.73,1.53,1.58,1.91.34.17.72.26,1.11.26,1.7,0,3.32-1.63,4.75-3.07.44-.44,1.01-1.02,1.35-1.27,1.27.78,2.07,1.11,2.71,1.11.47,0,.88-.18,1.16-.51.58-.68.42-1.66.21-3.02-.3-1.88-.68-4.21.77-5.81.8-.88,2.06-2.16,3.51-3.64,9.85-10,30.34-30.8,20.54-40.61-2.29-2.29-6.38-2.77-9.41-2.77h0Z"/>
    </g>
    <g>
      <path class="cls-5" d="m42.33,112.63c-.22,0-.44,0-.67,0-9.68-.28-15.71-3.32-17.94-9.04-3.95-10.15,5.45-25.11,11.36-30.87,8.04-7.83,15.08-14.03,23.32-18.87,3.61-2.43,7.22-3.73,10.4-3.73s5.81,1.34,7.23,3.77c2,3.4,1.42,8.42-1.57,13.77-1,2.02-4.49,7.34-8.38,12.04-3.48,4.2-8.37,9.2-11.91,9.2-1.67,0-2.88-1.03-3.6-3.07-.39-1.11-.8-1.11-.98-1.11-.33,0-.74.18-1.14.36-.49.21-.99.43-1.51.43-1.46,0-1.89-1.78-2.03-2.36-.3-1.25-.1-2.38.59-3.26.79-1,2.18-1.6,3.72-1.6,2.3,0,4.8,1.3,5.45,4.14,3.07-4.25,15-22.45,13.68-25.62-.06-.14-.15-.28-.52-.28-.7,0-2.25.53-5.68,3.04-11,9.31-23.06,23.77-23.85,36.39.62,6,3.17,9.09,7.59,9.09,8.14,0,20.87-10.27,26.98-16.74l.86-.92v3.89l-.14.14c-1.13,1.19-2.26,2.41-3.39,3.62-8.02,8.64-16.3,17.58-27.9,17.58Z"/>
      <path class="cls-8" d="m68.82,50.61c7.22,0,10.69,7.02,5.23,16.79-1.96,3.93-13.64,20.98-19.85,20.98-1.35,0-2.45-.81-3.13-2.74-.39-1.11-.9-1.44-1.45-1.44-.85,0-1.82.79-2.65.79-.62,0-1.17-.44-1.55-1.98-.66-2.74,1.48-4.23,3.83-4.23s4.98,1.53,5.1,4.86c0,0,0,0,0,0,.33,0,19.3-27.64,13.5-27.64-1.07,0-2.97.93-5.98,3.14-10.01,8.47-23.21,23.24-24.05,36.77.72,7.02,3.87,9.62,8.09,9.62,8.56,0,21.5-10.71,27.34-16.9v2.44c-9.26,9.71-17.96,21.05-30.92,21.05-.22,0-.43,0-.65,0-30.6-.89-15.92-29.63-6.24-39.06,8.02-7.81,15.05-13.99,23.23-18.79,3.76-2.53,7.26-3.66,10.15-3.66m0-1c-3.27,0-6.97,1.32-10.68,3.81-8.28,4.86-15.34,11.08-23.39,18.92-6,5.84-15.52,21.05-11.48,31.41,2.31,5.93,8.5,9.08,18.39,9.36.23,0,.45,0,.68,0,11.81,0,20.18-9.02,28.26-17.74,1.11-1.19,2.25-2.43,3.38-3.61l.28-.29v-5.35l-1.73,1.83c-6.05,6.41-18.63,16.58-26.62,16.58-4.16,0-6.47-2.83-7.09-8.64.82-12.44,12.75-26.72,23.67-35.96,3.6-2.64,4.95-2.93,5.36-2.93.03,0,.05,0,.07,0,.11.32.43,2.6-6.01,13.37-2.68,4.47-5.5,8.7-7.06,10.93-1-2.33-3.34-3.53-5.61-3.53-1.7,0-3.24.67-4.12,1.79-.55.7-1.12,1.91-.69,3.68.16.68.66,2.75,2.52,2.75.62,0,1.2-.25,1.71-.47.34-.15.72-.31.94-.31.22,0,.45.59.51.77.99,2.81,2.76,3.4,4.07,3.4,7.13,0,19.22-18.47,20.75-21.54,3.06-5.47,3.63-10.67,1.54-14.22-1.52-2.59-4.24-4.01-7.66-4.01h0Z"/>
    </g>
    <g>
      <path class="cls-5" d="m111.97,92.38c-4.03,0-9.53-1.63-15.35-3.36-6.18-1.83-12.58-3.73-17.51-3.73-1.23,0-2.34.12-3.29.36l-1.08.46c-2.95,1.25-5.73,2.42-7.36,2.42-.74,0-1.23-.24-1.48-.73-.5-.99.26-2.76,2.56-5.89,2.98-4.9,10.19-6.89,15.56-7.11,8.42-12.36,26.71-29.33,40.62-41.41,2.19-1.43,4.11-2.14,5.76-2.14,2.2,0,3.79,1.3,4.36,3.55,1.6,6.32-4.52,17.39-17.2,24.57l4.8,2.9-.37.45c-1.94,2.33-5.93,3.95-9.68,3.95-2.28,0-4.25-.59-5.72-1.71-.55-.42-.85-.98-.88-1.67-.18-3.33,6.07-9.26,12.11-15,3.99-3.78,8.11-7.7,8.45-9.3.03-.13.04-.24.05-.32-.08.04-.18.11-.3.2-9.14,6.61-30.84,28.22-36.84,36.06,4.67.48,11.12,2.79,17.37,5.03,5.47,1.96,10.63,3.8,14.22,4.31l.95.13-.66.7c-3.24,3.47-5.25,5.27-7.97,7.14l-.11.08h-.14c-.29.03-.58.04-.88.04Z"/>
      <path class="cls-8" d="m130.42,31.78c7.72,0,5.3,17.22-13.83,27.6l5.04,3.04c-1.86,2.22-5.7,3.77-9.3,3.77-2.01,0-3.94-.48-5.42-1.6-5.02-3.82,18.92-21,19.86-25.47.11-.52.13-1.01-.23-1.01-.17,0-.43.11-.81.38-9.84,7.12-32.5,29.93-37.49,36.89,8.48.44,24.4,8.27,32.47,9.4-3.38,3.62-5.31,5.3-7.88,7.07-.27.02-.56.03-.85.03-8.24,0-23.23-7.08-32.86-7.08-1.23,0-2.38.12-3.41.38-3.13,1.31-6.58,2.87-8.32,2.87s-1.75-1.42,1.48-5.82c2.84-4.67,9.87-6.74,15.43-6.91,8.98-13.31,29.6-31.9,40.68-41.52,2.14-1.4,3.97-2.01,5.43-2.01m0-1h0c-1.75,0-3.76.73-5.97,2.17l-.06.04-.05.05c-13.85,12.04-32.06,28.91-40.57,41.3-5.46.28-12.65,2.33-15.72,7.33-2.44,3.33-3.19,5.18-2.58,6.38.23.46.75,1,1.93,1,1.73,0,4.56-1.2,7.55-2.46l1.08-.45c.89-.22,1.93-.33,3.09-.33,4.86,0,11.22,1.88,17.36,3.71,5.86,1.74,11.39,3.38,15.49,3.38.31,0,.62,0,.92-.03l.27-.02.23-.15c2.76-1.89,4.79-3.71,8.05-7.21l1.31-1.41-1.91-.27c-3.54-.49-8.68-2.33-14.12-4.28-5.89-2.11-11.96-4.28-16.6-4.94,6.33-7.93,25.43-26.96,34.88-34.28-1.45,1.91-4.63,4.92-7.51,7.66-7.53,7.14-12.45,12.07-12.27,15.39.05.83.42,1.54,1.08,2.04,1.55,1.18,3.64,1.81,6.02,1.81,3.9,0,8.03-1.7,10.07-4.13l.75-.89-1-.6-3.57-2.16c7.27-4.27,11.34-9.11,13.51-12.52,2.81-4.42,4-8.97,3.19-12.18-.63-2.5-2.4-3.93-4.85-3.93h0Z"/>
    </g>
  </g>
</svg>